HIERARCHY
ROOT SpineBase
{
  OFFSET 0.000000 0.000000 0.000000
  CHANNELS 6 Xposition Yposition Zposition Zrotation Xrotation Yrotation
  JOINT SpineMid
  {
    OFFSET 0.000000 31.927995 0.000000
    CHANNELS 3 Zrotation Xrotation Yrotation
    JOINT SpineShoulder
    {
      OFFSET -0.294725 23.499047 -0.712291
      CHANNELS 3 Zrotation Xrotation Yrotation
      JOINT Neck
      {
        OFFSET -0.175191 7.720986 -0.557634
        CHANNELS 3 Zrotation Xrotation Yrotation
        JOINT Head
        {
          OFFSET -4.799508 11.968139 2.276365
          CHANNELS 3 Zrotation Xrotation Yrotation
          End Site
          {
            OFFSET 0 0 0
          }
        }
      }
      JOINT ShoulderLeft
      {
        OFFSET -13.435178 -5.892751 9.013829
        CHANNELS 3 Zrotation Xrotation Yrotation
        JOINT ElbowLeft
        {
          OFFSET 0.892413 -26.539255 10.058255
          CHANNELS 3 Zrotation Xrotation Yrotation
          JOINT WristLeft
          {
            OFFSET 0.993813 -24.898144 -6.758698
            CHANNELS 3 Zrotation Xrotation Yrotation
            JOINT HandLeft
            {
              OFFSET 0.522758 -3.908470 4.640817
              CHANNELS 3 Zrotation Xrotation Yrotation
              JOINT HandTipLeft
              {
                OFFSET -0.010646 -1.959655 -0.636297
                CHANNELS 3 Zrotation Xrotation Yrotation
                End Site
                {
                  OFFSET 0 0 0
                }
              }
              JOINT ThumbLeft
              {
                OFFSET 0.022244 0.505977 -1.943561
                CHANNELS 3 Zrotation Xrotation Yrotation
                End Site
                {
                  OFFSET 0 0 0
                }
              }
            }
          }
        }
      }
      JOINT ShoulderRight
      {
        OFFSET 3.258633 -5.280282 -14.379471
        CHANNELS 3 Zrotation Xrotation Yrotation
        JOINT ElbowRight
        {
          OFFSET 2.669922 -23.418472 -6.285299
          CHANNELS 3 Zrotation Xrotation Yrotation
          JOINT WristRight
          {
            OFFSET -6.025421 -20.544258 -1.358953
            CHANNELS 3 Zrotation Xrotation Yrotation
            JOINT HandRight
            {
              OFFSET 0.257128 -5.967256 0.902480
              CHANNELS 3 Zrotation Xrotation Yrotation
              JOINT HandTipRight
              {
                OFFSET -3.094422 -6.184768 0.419294
                CHANNELS 3 Zrotation Xrotation Yrotation
                End Site
                {
                  OFFSET 0 0 0
                }
              }
              JOINT ThumbRight
              {
                OFFSET 2.960256 -0.417287 1.899105
                CHANNELS 3 Zrotation Xrotation Yrotation
                End Site
                {
                  OFFSET 0 0 0
                }
              }
            }
          }
        }
      }
    }
  }
  JOINT HipLeft
  {
    OFFSET -5.014923 -0.301498 2.268008
    CHANNELS 3 Zrotation Xrotation Yrotation
    JOINT KneeLeft
    {
      OFFSET 4.777777 -29.773603 8.933898
      CHANNELS 3 Zrotation Xrotation Yrotation
      JOINT AnkleLeft
      {
        OFFSET 5.595597 -30.980676 6.847929
        CHANNELS 3 Zrotation Xrotation Yrotation
        JOINT FootLeft
        {
          OFFSET -4.581537 -5.575764 -1.872428
          CHANNELS 3 Zrotation Xrotation Yrotation
          End Site
          {
            OFFSET 0 0 0
          }
        }
      }
    }
  }
  JOINT HipRight
  {
    OFFSET 4.261304 1.639770 -8.884214
    CHANNELS 3 Zrotation Xrotation Yrotation
    JOINT KneeRight
    {
      OFFSET 8.627453 -28.070599 -3.900381
      CHANNELS 3 Zrotation Xrotation Yrotation
      JOINT AnkleRight
      {
        OFFSET 8.365585 -32.433859 -2.709473
        CHANNELS 3 Zrotation Xrotation Yrotation
        JOINT FootRight
        {
          OFFSET -4.150859 -6.089828 -6.752417
          CHANNELS 3 Zrotation Xrotation Yrotation
          End Site
          {
            OFFSET 0 0 0
          }
        }
      }
    }
  }
}
MOTION
Frames: 12
Frame Time: 0.033333
34.369858 67.113367 329.805391 -0.000000 0.000000 50.246900 -0.000000 0.000000 -50.246900 -0.000000 0.000000 0.000000 -0.000000 0.000000 0.000000 0.000000 0.000000 0.000000 -0.000000 0.000000 0.000000 -0.000000 0.000000 0.000000 -0.000000 0.000000 0.000000 -0.000000 0.000000 0.000000 0.000000 0.000000 0.000000 0.000000 0.000000 0.000000 -0.000000 0.000000 0.000000 -0.000000 0.000000 0.000000 -0.000000 0.000000 0.000000 -0.000000 0.000000 0.000000 0.000000 0.000000 0.000000 0.000000 0.000000 0.000000 -0.000000 0.000000 -50.246900 -0.000000 0.000000 0.000000 -0.000000 0.000000 0.000000 0.000000 0.000000 0.000000 -0.000000 0.000000 -50.246900 -0.000000 0.000000 0.000000 -0.000000 0.000000 0.000000 0.000000 0.000000 0.000000
34.438072 67.007145 329.756953 0.126020 -0.106106 50.142826 0.000688 0.164740 -50.142710 -0.000000 0.000000 0.000000 -0.000000 0.000000 0.000000 0.000000 0.000000 0.000000 -0.000000 0.000000 0.000000 -0.000000 0.000000 0.000000 -0.000000 0.000000 0.000000 -0.000000 0.000000 0.000000 0.000000 0.000000 0.000000 0.000000 0.000000 0.000000 -0.000000 0.000000 0.000000 -0.000000 0.000000 0.000000 0.454282 -1.647176 0.004245 0.038329 1.070288 0.319748 0.000000 0.000000 0.000000 0.000000 0.000000 0.000000 0.000688 0.164740 -50.142710 -0.000000 0.000000 0.000000 -1.634397 -1.151102 1.466034 0.000000 0.000000 0.000000 0.000688 0.164740 -50.142710 -0.000000 0.000000 0.000000 -0.000000 0.000000 0.000000 0.000000 0.000000 0.000000
34.519541 66.916593 329.712039 0.264294 -0.203935 50.009421 -0.013608 0.333549 -50.008911 -0.000000 0.000000 0.000000 -0.000000 0.000000 0.000000 0.000000 0.000000 0.000000 -0.000000 0.000000 0.000000 -0.000000 0.000000 0.000000 0.413316 -0.680356 0.399209 -0.408594 0.683202 -0.394319 0.000000 0.000000 0.000000 0.000000 0.000000 0.000000 -0.000000 0.000000 0.000000 0.913858 0.325487 -0.158850 -0.084334 -3.678630 0.162007 -0.040082 2.355323 0.559289 0.000000 0.000000 0.000000 0.000000 0.000000 0.000000 -0.013608 0.333549 -50.008911 -0.000000 0.000000 0.000000 -3.027397 -2.101049 2.646314 0.000000 0.000000 0.000000 -0.013608 0.333549 -50.008911 -0.000000 0.000000 0.000000 -0.000000 0.000000 0.000000 0.000000 0.000000 0.000000
34.614265 66.841709 329.670650 0.414879 -0.293575 49.847022 -0.043146 0.506407 -49.845768 -0.000000 0.000000 0.000000 -0.000000 0.000000 0.000000 0.000000 0.000000 0.000000 -0.000000 0.000000 0.000000 -0.000000 0.000000 0.000000 0.589048 -0.953281 0.570787 -0.579604 0.959053 -0.561036 0.000000 0.000000 0.000000 0.000000 0.000000 0.000000 -0.000000 0.000000 0.000000 1.241042 0.423586 -0.211537 -0.136594 -5.524682 0.203734 -0.216516 3.826588 0.734927 0.000000 0.000000 0.000000 0.000000 0.000000 0.000000 -0.043146 0.506407 -49.845768 -0.000000 0.000000 0.000000 -4.217915 -2.857584 3.580809 0.000000 0.000000 0.000000 -0.043146 0.506407 -49.845768 -0.000000 0.000000 0.000000 0.627666 -0.091384 -0.636107 0.000000 0.000000 0.000000
34.722244 66.782494 329.632786 0.577851 -0.375107 49.655937 -0.088208 0.683252 -49.653519 -0.000000 0.000000 0.000000 -0.000000 0.000000 0.000000 0.000000 0.000000 0.000000 -0.000000 0.000000 0.000000 -0.000000 0.000000 0.000000 0.743681 -1.181594 0.723173 -0.728867 1.190788 -0.707930 0.000000 0.000000 0.000000 0.000000 0.000000 0.000000 -0.000000 0.000000 0.000000 1.490754 0.482728 -0.247350 -0.220542 -7.354895 0.212837 -0.478191 5.457140 0.861928 0.000000 0.000000 0.000000 0.000000 0.000000 0.000000 -0.811581 0.334402 -49.832234 0.199973 0.777776 0.183781 -5.237107 -3.429133 4.301096 0.000000 0.000000 0.000000 -0.088208 0.683252 -49.653519 -0.000000 0.000000 0.000000 0.742162 -0.119121 -0.745095 0.000000 0.000000 0.000000
34.843479 66.738948 329.598447 0.753302 -0.448598 49.436452 -0.149108 0.863980 -49.432378 -0.000000 0.000000 0.000000 -0.000000 0.000000 0.000000 0.000000 0.000000 0.000000 -0.000000 0.000000 0.000000 -0.000000 0.000000 0.000000 0.876916 -1.365455 0.856054 -0.856667 1.378247 -0.835300 0.000000 0.000000 0.000000 0.000000 0.000000 0.000000 -0.000000 0.000000 0.000000 1.667638 0.504853 -0.266796 -0.350897 -9.150440 0.183582 -0.818815 7.221722 0.954635 0.000000 0.000000 0.000000 0.000000 0.000000 0.000000 -1.063382 0.527708 -49.669115 0.335275 0.914576 0.245164 -6.109495 -3.823229 4.831501 0.000000 0.000000 0.000000 -0.149108 0.863980 -49.432378 -0.000000 0.000000 0.000000 0.804904 -0.144301 -0.798047 0.000000 0.000000 0.000000
35.047359 66.676104 329.577888 1.033627 -0.535781 49.118280 -0.271514 1.132124 -49.110765 -0.000000 0.000000 0.000000 -0.000000 0.000000 0.000000 0.000000 0.000000 0.000000 -0.000000 0.000000 0.000000 -0.000000 0.000000 0.000000 0.969513 -1.449936 0.954094 -0.945547 1.465675 -0.929731 0.000000 0.000000 0.000000 0.000000 0.000000 0.000000 -0.000000 0.000000 0.000000 1.757742 0.492713 -0.269482 -0.256997 -11.990104 0.141548 -2.283028 11.044087 0.746695 0.000000 0.000000 0.000000 0.000000 0.000000 0.000000 -1.459256 0.889715 -49.436991 0.587975 1.059896 0.341744 -7.440807 -3.838261 5.185221 0.000000 0.000000 0.000000 -0.933181 1.972485 -48.928503 1.068102 -0.053296 -0.163841 0.857728 -0.174882 -0.836225 0.000000 0.000000 0.000000
35.267975 66.632259 329.563704 1.323799 -0.609389 48.821769 -0.413108 1.397536 -48.809690 -0.000000 0.000000 0.000000 -0.000000 0.000000 0.000000 0.000000 0.000000 0.000000 -0.000000 0.000000 0.000000 -0.000000 0.000000 0.000000 1.051893 -1.541216 1.039124 -1.024153 1.559785 -1.011034 0.000000 0.000000 0.000000 0.000000 0.000000 0.000000 -0.000000 0.000000 0.000000 1.790467 0.475666 -0.266534 -0.651091 -13.792339 -0.014692 -2.564990 13.007520 0.910547 0.000000 0.000000 0.000000 0.000000 0.000000 0.000000 -1.847629 1.310305 -49.221195 0.669706 0.379232 0.256248 -7.744862 -2.949620 5.489086 0.000000 0.000000 0.000000 -1.320246 2.612215 -48.530710 1.510557 -0.124608 -0.245600 0.758997 -0.238630 -0.682004 0.000000 0.000000 0.000000
35.431880 66.671278 329.529645 1.541846 -0.646489 48.673478 -0.532945 1.584670 -48.657409 0.005786 -0.810953 -0.017933 1.217344 1.220051 -0.072003 0.000000 0.000000 0.000000 -0.006040 0.810951 0.018017 -0.000000 0.000000 0.000000 1.126008 -1.611967 1.117098 -1.094816 1.633309 -1.085651 0.000000 0.000000 0.000000 0.000000 0.000000 0.000000 -0.006040 0.810951 0.018017 1.751315 0.380008 -0.234113 -1.369920 -14.388019 -0.276307 -3.352528 13.438663 1.355421 0.000000 0.000000 0.000000 0.000000 0.000000 0.000000 -2.178422 1.690028 -49.146470 1.155278 1.175586 0.524228 -8.075204 -3.969980 5.442711 0.000000 0.000000 0.000000 -1.682949 3.065236 -48.313708 1.869904 -0.125700 -0.294991 0.682318 -0.248055 -0.589817 0.000000 0.000000 0.000000
35.548129 66.700261 329.474513 1.683652 -0.637668 48.460138 -0.795718 0.806426 -48.430002 -0.341339 -0.139088 -0.009409 1.518491 1.177925 -0.216100 0.000000 0.000000 0.000000 -0.211014 0.837428 0.005307 -0.000000 0.000000 0.000000 1.194228 -1.661484 1.190917 -1.159945 1.685593 -1.156536 0.000000 0.000000 0.000000 0.000000 0.000000 0.000000 -0.211014 0.837428 0.005307 1.653646 0.211172 -0.175094 -2.340895 -14.417710 -0.629873 -4.012065 15.012142 1.059328 0.000000 0.000000 0.000000 0.000000 0.000000 0.000000 -2.549213 1.899349 -49.015639 1.414763 1.299561 0.617913 -8.226227 -3.912622 5.438721 0.000000 0.000000 0.000000 -1.919706 3.338985 -48.049553 2.086645 -0.154747 -0.332910 -0.000000 0.000000 0.000000 0.000000 0.000000 0.000000
35.531759 66.788122 329.403002 1.670154 -0.584325 48.139951 -0.812104 0.685921 -48.109526 -0.232287 -0.118300 0.000865 2.000917 1.381846 -0.289764 0.000000 0.000000 0.000000 -0.384882 0.849692 -0.005667 -0.000000 0.000000 0.000000 1.257426 -1.690309 1.261549 -1.220460 1.717186 -1.224708 0.000000 0.000000 0.000000 0.000000 0.000000 0.000000 -0.384882 0.849692 -0.005667 1.563027 0.099392 -0.134433 -2.477598 -15.036114 -0.763020 -3.782645 15.163096 1.405407 0.000000 0.000000 0.000000 0.000000 0.000000 0.000000 -2.686649 1.831283 -48.724720 1.471404 1.377963 0.645965 -8.060792 -3.638245 5.196324 0.000000 0.000000 0.000000 -1.944964 3.278673 -47.729748 2.067622 -0.169921 -0.334696 -0.000000 0.000000 0.000000 0.000000 0.000000 0.000000
35.617594 66.957350 329.327599 1.806165 -0.501488 48.029855 -0.853171 0.653921 -47.995403 -0.126157 -0.071772 0.014725 2.481994 1.663624 -0.317480 0.000000 0.000000 0.000000 -0.622843 0.770480 -0.023328 -0.000000 0.000000 0.000000 1.306161 -1.696186 1.318185 -1.267376 1.725355 -1.279765 0.000000 0.000000 0.000000 0.000000 0.000000 0.000000 -0.622843 0.770480 -0.023328 1.551557 -0.038968 -0.091045 -2.400608 -15.704166 -0.820716 -3.593355 15.999588 1.427886 0.000000 0.000000 0.000000 0.000000 0.000000 0.000000 -3.094292 2.109155 -48.706749 1.813157 1.412801 0.749329 -8.658124 -3.560485 5.292104 0.000000 0.000000 0.000000 -2.236569 3.419365 -47.596758 2.229789 -0.139241 -0.347928 -0.000000 0.000000 0.000000 0.000000 0.000000 0.000000
